<svg viewBox="0 0 1024 1024" xmlns="http://www.w3.org/2000/svg">
  <path d="M834.307 432.093s67.731 29.89 62.994 184.286l48.828 48.766s51.971-119.645 33.066-222.092c0 0-1.554-96.101-173.26-223.653 0 0-85.077 9.405-78.757-78.784l-67.731-67.764-122.881 122.879 59.855 59.917s148.077 6.229 96.105 127.546l-222.098 223.713-42.54-6.291-253.607 253.607s-17.345 61.411 26.778 99.215c0 0 28.34 34.69 88.221 33.072l248.868-258.341 4.738-42.54 253.573-251.988s14.202-22.051 37.84-1.554v0.003M353.842 460.372l80.345 80.398 108.707-108.679-83.521-83.521c88.221-201.664-165.382-280.388-165.382-280.388-47.243-12.642-37.805 23.6-37.805 23.6 99.246 81.902 83.489 108.683 83.489 108.683-12.583 94.54-94.512 130.793-94.512 130.793-81.899 34.628-149.629-80.345-149.629-80.345-26.781-4.73-23.636 25.227-23.636 25.227 66.171 291.412 281.943 184.223 281.943 184.223v0.006M607.476 723.443l250.431 266.245 122.884-122.879-263.075-253.607-110.239 110.239M857.905 808.517l50.951 36.993-19.466 59.917h-62.966l-19.433-59.917 50.913-36.993M857.905 808.517z"></path>
</svg>